<?xml version="1.0" standalone="no"?>
<!DOCTYPE svg PUBLIC "-//W3C//DTD SVG 20010904//EN"
 "http://www.w3.org/TR/2001/REC-SVG-20010904/DTD/svg10.dtd">
<svg version="1.0" xmlns="http://www.w3.org/2000/svg"
 width="664.000000pt" height="664.000000pt" viewBox="0 0 664.000000 664.000000"
 preserveAspectRatio="xMidYMid meet">
<metadata>
Created by potrace 1.16, written by Peter Selinger 2001-2019
</metadata>
<g transform="translate(0.000000,664.000000) scale(0.100000,-0.100000)"
fill="#000000" stroke="none">
<path d="M3283 6443 c-52 -7 -40 -28 15 -26 6 1 12 -4 12 -9 0 -6 6 -8 14 -5
8 3 17 3 21 -1 4 -4 10 -7 13 -8 38 -3 92 -18 92 -24 0 -17 -20 -20 -111 -13
-69 5 -87 8 -69 15 41 15 9 29 -118 51 l-121 20 -116 -22 c-165 -32 -178 -37
-236 -82 -38 -31 -68 -45 -117 -55 -117 -24 -181 -54 -211 -99 -41 -59 -52
-99 -58 -207 -5 -91 -7 -97 -29 -102 -13 -4 -24 -12 -24 -19 0 -8 -3 -7 -9 2
-8 12 -12 12 -25 2 -9 -8 -16 -19 -16 -26 0 -7 -9 -15 -20 -18 -11 -3 -24 -18
-30 -34 -6 -15 -15 -37 -20 -48 -5 -11 -59 -132 -120 -270 -164 -369 -195
-437 -234 -515 -13 -25 -34 -75 -46 -112 -25 -74 -23 -112 8 -156 11 -15 21
-38 24 -52 3 -14 20 -77 37 -140 68 -245 67 -230 21 -525 -72 -458 -72 -490
-6 -599 20 -33 36 -65 36 -71 0 -7 26 -63 58 -126 31 -63 65 -132 75 -154 9
-22 28 -58 41 -80 14 -22 25 -52 25 -66 1 -14 22 -73 47 -130 81 -187 83 -210
30 -416 -13 -51 -19 -90 -15 -87 5 3 9 -4 9 -15 0 -12 -5 -21 -11 -21 -6 0 -9
-7 -5 -15 3 -8 -2 -31 -10 -51 -13 -32 -29 -108 -51 -245 -4 -27 1 -43 21 -73
14 -22 26 -47 26 -57 0 -25 90 -270 141 -385 30 -69 30 -85 4 -184 -14 -52
-50 -189 -80 -305 -64 -247 -101 -373 -115 -397 -5 -10 -10 -26 -10 -35 0 -10
-33 -116 -73 -236 l-73 -217 1824 0 c1732 0 1823 1 1818 18 -3 9 -14 57 -26
107 -20 84 -47 178 -105 365 -13 41 -47 152 -75 245 -50 164 -116 365 -161
490 -12 33 -48 141 -80 240 -139 429 -225 671 -284 801 -54 118 -229 457 -279
539 -20 33 -36 65 -36 71 0 6 -18 36 -40 66 l-39 56 40 6 c112 18 207 98 340
289 51 73 105 148 121 167 15 19 28 42 28 50 0 9 7 26 16 39 14 19 16 39 11
110 -4 72 -18 125 -87 331 -57 171 -91 297 -116 418 -18 95 -34 182 -34 195
-1 12 -8 40 -16 62 -9 22 -16 48 -15 58 0 9 -4 17 -10 17 -5 0 -9 33 -9 74 0
76 -33 297 -90 601 -5 22 -13 67 -19 100 -18 93 -52 217 -68 250 -16 30 -99
131 -161 194 -19 18 -40 52 -48 75 -32 90 -205 228 -359 285 -33 13 -64 26
-70 31 -12 9 -239 63 -335 79 -75 13 -180 19 -227 14z m-93 -83 c0 -5 -2 -10
-4 -10 -3 0 -8 5 -11 10 -3 6 -1 10 4 10 6 0 11 -4 11 -10z m30 6 c0 -3 -4 -8
-10 -11 -5 -3 -10 -1 -10 4 0 6 5 11 10 11 6 0 10 -2 10 -4z m315 -22 c42 -5
86 -17 91 -26 3 -5 -5 -6 -18 -4 -13 3 -51 11 -85 17 -35 7 -63 17 -63 22 0 5
12 6 28 2 15 -5 36 -9 47 -11z m-678 -20 c-3 -3 -12 -4 -19 -1 -8 3 -5 6 6 6
11 1 17 -2 13 -5z m818 -14 c3 -5 2 -10 -4 -10 -5 0 -13 5 -16 10 -3 6 -2 10
4 10 5 0 13 -4 16 -10z m60 -10 c3 -5 -1 -10 -10 -10 -9 0 -13 5 -10 10 3 6 8
10 10 10 2 0 7 -4 10 -10z m-563 -20 c92 9 411 -24 473 -50 11 -4 40 -13 65
-20 25 -6 61 -19 80 -27 19 -8 46 -17 60 -20 13 -2 45 -15 70 -28 25 -13 52
-26 60 -29 8 -4 24 -12 35 -19 11 -7 51 -30 88 -52 37 -21 67 -43 67 -47 0 -4
5 -8 12 -8 16 0 48 -31 48 -47 0 -20 -20 -16 -21 5 0 9 -3 12 -5 6 -6 -15 13
-64 26 -64 5 0 10 11 10 25 0 22 5 19 58 -33 31 -31 54 -58 50 -60 -15 -7 -8
-24 7 -18 9 3 19 -3 25 -14 9 -16 8 -20 -5 -20 -10 0 -13 5 -9 12 4 7 3 8 -5
4 -17 -11 -5 -23 29 -29 30 -7 35 -14 59 -88 13 -43 14 -96 2 -103 -14 -9 -21
20 -8 34 9 9 8 11 -8 8 -16 -2 -21 5 -28 45 -5 26 -13 47 -18 47 -5 0 -9 7 -9
15 0 8 -4 15 -10 15 -5 0 -10 6 -10 13 0 6 -11 26 -24 42 -23 28 -26 29 -42
13 -16 -15 -16 -21 -4 -43 18 -34 9 -39 -20 -12 -44 40 -134 103 -172 121 -27
12 -35 21 -31 32 5 13 1 15 -15 10 -12 -4 -27 -4 -34 0 -9 6 -5 10 12 15 23 6
23 7 3 8 -12 1 -24 -3 -28 -9 -3 -5 -19 -1 -38 10 -18 11 -37 20 -43 20 -6 0
-38 12 -70 26 -33 15 -76 28 -97 29 -21 2 -46 10 -55 18 -10 8 -23 12 -29 10
-7 -3 -13 0 -13 5 0 6 -8 8 -17 6 -10 -3 -36 -1 -58 5 -38 9 -37 9 28 10 69 1
76 5 54 34 -9 13 -32 19 -92 23 -115 8 -300 -25 -435 -78 -14 -6 -69 -14 -123
-19 -80 -7 -103 -13 -130 -33 -18 -14 -45 -27 -60 -30 -16 -3 -44 -19 -63 -35
-31 -28 -54 -39 -54 -27 0 16 14 36 26 36 24 0 16 17 -11 24 -14 4 -25 10 -25
14 0 12 14 29 30 35 12 4 12 6 -2 6 -13 1 -10 11 18 52 40 60 42 81 11 106
-22 17 -26 52 -6 54 5 1 15 2 22 3 6 1 11 7 10 13 -2 12 195 52 256 52 18 0
35 2 38 5 3 3 12 2 19 -2 8 -4 42 -5 76 -2z m648 -10 c0 -5 -7 -7 -15 -4 -8 4
-15 8 -15 10 0 2 7 4 15 4 8 0 15 -4 15 -10z m-405 -278 c5 -3 29 -7 52 -9 53
-3 185 -29 238 -47 22 -7 60 -19 85 -27 84 -24 294 -125 337 -160 10 -8 30
-21 46 -29 15 -7 39 -26 55 -42 15 -15 44 -38 65 -50 20 -12 37 -25 37 -30 0
-4 9 -17 20 -28 11 -11 22 -32 25 -47 4 -16 13 -40 21 -55 8 -16 13 -28 10
-28 -3 0 2 -16 10 -37 14 -33 89 -278 101 -330 3 -13 9 -23 14 -23 5 0 9 -6 9
-12 0 -7 7 -26 15 -42 8 -15 12 -32 9 -37 -3 -5 -1 -9 5 -9 6 0 15 -9 21 -20
9 -17 8 -19 -7 -13 -16 6 -17 5 -3 -11 13 -16 12 -20 -1 -30 -16 -11 -18 -37
-5 -68 12 -27 2 -53 -18 -50 -27 5 -36 -15 -36 -87 0 -73 -9 -76 -17 -4 -3 26
-9 50 -13 53 -8 5 -16 29 -24 71 -2 8 -8 27 -14 42 -7 16 -12 30 -12 32 0 3
-11 28 -23 57 -13 29 -30 68 -37 86 -7 17 -17 32 -22 32 -5 0 -7 13 -3 30 4
20 3 30 -5 30 -16 0 -35 21 -42 45 -6 17 -40 105 -68 170 -4 11 -20 46 -35 78
-15 32 -25 60 -23 63 3 2 15 -5 28 -16 12 -10 35 -25 51 -32 16 -7 29 -16 29
-20 0 -5 5 -8 10 -8 6 0 24 -13 40 -30 30 -31 60 -40 60 -18 0 19 -119 125
-180 160 -30 18 -56 35 -58 40 -2 4 -8 8 -13 8 -12 0 -113 62 -117 72 -2 4
-13 8 -25 8 -12 0 -34 6 -49 14 -30 16 -96 39 -118 41 -8 1 -44 11 -80 23 -36
11 -99 25 -140 32 -41 6 -100 15 -130 20 -117 19 -582 32 -606 17 -6 -3 -40
-9 -77 -12 -57 -6 -66 -4 -61 8 3 8 16 18 30 21 16 4 24 14 24 27 0 11 4 18 9
15 5 -4 33 10 63 29 54 36 324 129 416 145 47 7 108 3 127 -8z m-1115 -213
c13 -31 9 -46 -9 -34 -6 3 -11 17 -11 31 0 13 -4 24 -10 24 -5 0 -10 4 -10 10
0 19 29 -2 40 -31z m-36 -81 c34 -28 65 -55 69 -59 16 -13 -16 -49 -38 -43
-15 4 -16 3 -6 -4 12 -8 11 -14 -6 -36 -12 -14 -27 -46 -34 -71 -7 -25 -17
-45 -21 -45 -4 0 -8 -8 -8 -17 0 -10 -11 -40 -25 -67 -14 -27 -25 -57 -25 -67
0 -10 -4 -20 -9 -24 -10 -6 -42 -104 -47 -146 -2 -15 -8 -46 -13 -70 -6 -24
-11 -63 -11 -85 0 -26 -5 -44 -14 -47 -9 -4 -16 -29 -20 -74 -3 -37 -6 -72 -7
-78 -1 -5 2 -18 6 -27 5 -14 2 -18 -13 -18 -16 0 -19 5 -15 23 4 15 2 19 -4
12 -20 -19 -24 -62 -7 -69 14 -5 14 -9 3 -23 -13 -15 -11 -16 9 -10 19 4 22 3
16 -11 -11 -24 -14 -597 -4 -662 21 -125 32 -248 35 -370 2 -116 22 -305 36
-342 6 -14 9 -39 7 -55 -2 -23 1 -29 20 -31 12 -2 22 1 22 7 0 6 4 11 8 11 5
0 5 -21 0 -47 -5 -27 -13 -79 -19 -118 -5 -38 -15 -92 -22 -120 -13 -49 -14
-49 -21 -20 -4 17 -15 38 -23 48 -15 15 -15 17 0 17 21 0 21 9 1 35 -16 19
-16 19 -9 -5 4 -18 0 -15 -16 13 -24 40 -44 50 -34 17 3 -11 2 -20 -3 -20 -6
0 -10 24 -10 53 1 60 -24 151 -37 140 -5 -4 -4 -1 3 8 15 20 16 45 4 144 -7
49 -8 276 -5 585 7 632 7 641 23 605 6 -14 9 -15 9 -5 1 9 -4 21 -11 28 -6 6
-12 38 -12 71 0 33 -4 54 -8 48 -16 -26 -16 4 -2 103 16 113 25 288 17 333 -3
15 -12 27 -21 27 -12 0 -14 9 -8 46 3 26 10 52 15 58 4 6 14 29 21 51 7 22 20
54 30 71 9 17 23 47 29 66 7 20 21 46 31 58 11 13 18 26 15 30 -5 8 21 80 53
150 11 25 23 53 26 63 3 9 9 17 12 17 4 0 35 -23 68 -52z m69 18 c4 -10 1 -13
-8 -9 -8 3 -12 9 -9 14 7 12 11 11 17 -5z m743 -21 c-11 -31 285 -325 328
-325 7 0 42 -22 77 -48 35 -26 87 -58 114 -70 59 -25 52 -27 -35 -7 -86 20
-138 35 -177 51 -17 8 -34 14 -38 14 -24 0 -200 96 -232 127 -7 6 -28 21 -48
33 -19 12 -35 25 -35 30 0 5 -8 11 -18 14 -22 7 -93 75 -145 139 l-38 46 118
4 c65 1 122 4 127 5 4 1 6 -5 2 -13z m269 1 c74 -6 315 -45 352 -57 19 -6 36
-20 42 -37 6 -15 22 -45 36 -67 14 -22 31 -50 37 -62 6 -13 15 -23 19 -23 4 0
10 -13 14 -30 3 -16 17 -52 31 -80 13 -27 24 -56 24 -64 0 -8 4 -17 9 -20 5
-3 14 -20 20 -36 7 -22 7 -29 -1 -24 -6 4 -30 9 -54 11 -24 1 -56 8 -71 15
-15 6 -35 12 -44 13 -22 3 -164 76 -240 124 -131 83 -309 232 -309 258 0 7 -6
10 -13 7 -16 -6 -66 55 -60 72 3 10 71 10 208 0z m-538 -16 c-5 -19 2 -30 58
-100 25 -31 122 -128 155 -155 37 -30 155 -105 165 -105 5 0 16 -6 24 -13 23
-19 256 -105 354 -129 67 -17 111 -21 240 -21 151 1 158 0 154 -18 -3 -11 -1
-17 4 -14 14 9 38 -58 26 -72 -24 -32 -407 -1 -539 43 -46 15 -89 33 -96 41
-17 17 -27 17 -42 -2 -11 -13 -9 -20 11 -41 13 -14 40 -34 59 -44 19 -10 48
-30 63 -44 15 -14 37 -26 48 -26 10 0 19 -5 19 -11 0 -5 5 -7 10 -4 6 4 24 0
40 -9 16 -8 44 -18 62 -21 18 -4 37 -10 43 -13 5 -4 21 -5 35 -4 14 1 39 -2
55 -7 22 -7 0 -9 -90 -10 -82 -1 -125 3 -133 11 -8 8 -12 9 -12 1 0 -6 -9 -9
-20 -6 -11 3 -20 14 -20 24 0 23 -8 23 -34 4 -22 -17 -72 -20 -80 -6 -4 5 -25
12 -48 16 -45 8 -200 70 -264 107 -101 57 -254 183 -254 209 0 6 -4 8 -8 5
-10 -6 -52 47 -52 64 0 6 -6 18 -14 26 -11 11 -16 11 -20 1 -3 -6 -4 1 -1 17
4 20 1 32 -12 41 -10 7 -18 17 -18 22 0 12 -28 77 -36 83 -11 8 -49 84 -49 98
0 10 9 12 33 7 22 -4 28 -3 18 3 -26 18 -4 40 46 47 26 3 59 9 73 14 42 15 53
13 47 -9z m-377 -5 c0 -8 -4 -15 -10 -15 -5 0 -10 7 -10 15 0 8 5 15 10 15 6
0 10 -7 10 -15z m32 -85 c11 -30 19 -63 19 -73 0 -9 4 -15 8 -13 4 3 13 -12
20 -32 7 -20 21 -44 30 -52 10 -8 33 -35 51 -60 48 -63 136 -164 194 -222 26
-27 47 -50 45 -52 -2 -2 -35 -7 -74 -12 -38 -5 -68 -13 -67 -18 2 -5 -2 -13
-10 -17 -10 -7 -10 -9 2 -9 8 0 21 -9 28 -20 11 -18 15 -19 45 -7 17 7 57 19
87 26 l56 13 65 -38 c35 -22 86 -50 112 -64 25 -13 43 -28 39 -32 -14 -14
-155 -46 -226 -52 -75 -6 -96 -17 -78 -38 6 -8 13 -27 16 -42 5 -29 26 -60 26
-40 0 5 -5 15 -11 21 -7 7 -2 10 18 10 31 0 159 10 243 19 58 7 206 39 244 54
13 5 43 4 70 -2 41 -9 52 -17 94 -72 26 -35 63 -90 82 -124 19 -34 39 -62 44
-62 20 0 46 34 46 60 0 28 48 129 79 166 9 12 26 24 38 28 24 8 35 -19 27 -68
l-5 -31 16 28 c8 15 20 27 25 27 13 0 13 -13 0 -26 -7 -7 -6 -38 5 -99 22
-128 21 -137 -32 -217 l-47 -72 -9 36 c-5 21 -17 40 -30 46 l-22 11 22 0 c12
1 25 -3 28 -9 3 -5 13 -10 21 -10 20 0 18 36 -4 58 -34 34 -34 52 -1 118 31
64 34 95 11 100 -7 1 -8 0 -2 -3 5 -2 10 -10 10 -17 0 -16 -58 -68 -69 -62 -4
3 -8 -1 -8 -8 0 -8 -12 -40 -27 -71 -20 -39 -27 -67 -24 -88 7 -43 1 -57 -26
-57 -28 0 -38 -20 -66 -124 -29 -108 -102 -258 -149 -304 -43 -42 -228 -137
-341 -175 -264 -88 -409 -124 -454 -113 -84 21 -264 272 -357 498 -35 86 -36
101 -4 122 35 23 32 37 -16 79 l-42 36 34 14 c46 19 96 68 105 100 9 38 -2 60
-26 54 -11 -3 -20 -1 -20 3 0 5 -3 16 -7 26 -4 12 -3 15 5 10 7 -4 12 -1 12 9
0 21 -53 137 -71 155 -43 42 -85 117 -83 145 4 45 23 143 41 205 18 62 89 257
103 280 44 75 89 180 84 195 -5 13 -2 16 16 13 18 -2 27 -15 42 -58z m1402 5
c8 -8 22 -15 30 -15 9 0 35 -9 59 -19 23 -11 59 -25 80 -33 34 -11 43 -21 73
-85 19 -40 39 -75 44 -78 6 -3 10 -14 10 -23 0 -9 6 -28 13 -42 7 -14 21 -47
31 -75 10 -27 23 -55 28 -61 4 -6 9 -30 11 -53 1 -22 5 -41 9 -41 6 0 38 -95
73 -220 19 -67 58 -262 58 -287 -1 -13 3 -23 9 -23 5 0 8 -12 7 -28 -2 -15 0
-32 4 -39 4 -7 7 -29 7 -50 -1 -21 1 -72 5 -113 9 -106 11 -315 2 -377 -6 -47
-22 -94 -49 -147 -5 -10 -18 -44 -28 -75 -16 -50 -20 -56 -46 -57 -16 -1 -69
-8 -118 -17 -49 -10 -100 -17 -114 -17 -31 0 -112 -29 -112 -41 0 -16 30 -37
47 -33 10 2 96 18 191 35 212 37 268 60 313 127 18 26 35 49 38 52 6 5 9 10
57 100 16 30 35 61 41 68 16 17 16 25 1 40 -9 9 -18 6 -40 -15 -15 -15 -28
-32 -28 -38 0 -7 -9 -20 -19 -29 -11 -10 -22 -28 -25 -42 -4 -13 -11 -24 -17
-24 -7 0 -8 7 -4 18 7 16 20 72 32 132 3 21 8 73 12 148 1 7 5 11 10 8 16 -10
43 5 32 18 -11 13 -13 366 -3 440 7 53 32 77 32 31 0 -15 -4 -24 -10 -20 -5 3
-10 2 -10 -4 0 -5 8 -11 17 -13 14 -2 16 -14 14 -73 -1 -38 1 -67 5 -62 4 4 7
24 7 44 -1 38 -1 38 9 10 7 -21 7 -36 -1 -54 -10 -21 -9 -24 3 -20 10 4 15 -4
19 -26 2 -18 1 -33 -4 -35 -5 -2 -9 -8 -9 -13 0 -6 3 -8 8 -6 4 3 13 -1 20 -9
7 -8 11 -14 8 -14 -2 0 3 -21 11 -47 15 -50 26 -228 25 -417 -1 -92 -5 -119
-27 -177 -15 -38 -30 -67 -35 -64 -4 3 -13 -2 -20 -10 -11 -13 -10 -14 4 -9
15 6 15 3 5 -19 -26 -58 -246 -132 -389 -131 -89 0 -267 37 -324 66 -25 13
-72 27 -114 34 -34 5 -103 -26 -131 -60 -7 -8 -19 -12 -27 -9 -9 3 -14 0 -12
-8 2 -8 -3 -13 -10 -11 -6 1 -11 -1 -10 -6 4 -12 -80 -142 -92 -142 -16 0 -12
9 15 34 14 13 25 34 25 48 0 33 72 114 91 103 11 -7 11 -6 0 9 -13 16 -12 17
11 11 16 -4 29 -2 33 5 5 9 1 10 -14 5 -52 -16 -3 37 116 126 39 30 81 61 93
69 50 34 142 111 182 152 110 114 184 198 195 219 73 147 99 249 64 249 -13 0
-51 -63 -51 -85 0 -2 -16 -30 -35 -62 l-35 -58 0 95 c0 79 -13 196 -35 328 -2
12 -9 55 -15 95 -7 40 -16 81 -21 92 -5 11 -10 29 -12 40 -1 11 -5 25 -8 30
-3 6 -11 30 -18 55 -19 66 -32 102 -44 128 -9 18 -8 25 3 33 13 9 13 10 0 6
-11 -3 -23 17 -43 72 -16 42 -31 86 -34 99 -3 12 -9 22 -14 22 -4 0 -11 17
-15 38 -4 20 -10 39 -13 42 -12 10 -61 110 -61 124 0 8 -7 16 -15 20 -8 3 -15
13 -15 21 0 9 -11 33 -25 53 -14 20 -25 41 -25 46 0 5 -8 15 -17 22 -16 12
-16 13 9 14 15 0 33 -7 42 -15z m614 -67 c-6 -18 -28 -21 -28 -4 0 9 7 16 16
16 9 0 14 -5 12 -12z m21 -95 c1 -18 -3 -33 -8 -33 -10 0 -22 80 -14 94 9 13
21 -22 22 -61z m18 -115 c-3 -8 -6 -5 -6 6 -1 11 2 17 5 13 3 -3 4 -12 1 -19z
m-2558 -190 c1 -5 -5 -8 -11 -8 -9 0 -13 -23 -14 -77 0 -42 -5 -78 -11 -80 -5
-2 -7 -29 -5 -63 5 -67 -3 -104 -18 -80 -12 19 -23 -26 -17 -71 3 -31 4 -30 5
9 1 23 7 42 12 42 11 0 6 -113 -9 -183 -10 -46 -11 -60 -14 -112 -3 -47 -11
-44 -26 8 -7 23 -17 52 -22 65 -5 13 -5 22 1 22 6 0 10 -5 10 -12 0 -6 2 -9 5
-6 3 3 0 17 -6 32 -9 19 -15 23 -21 14 -5 -9 -8 -8 -8 5 0 10 -8 32 -17 50 -9
18 -18 46 -18 62 -2 44 88 264 115 280 6 3 8 11 5 16 -3 5 0 23 8 41 8 18 20
47 27 63 11 28 13 28 21 10 4 -11 8 -23 8 -27z m2071 -151 c0 -9 -12 -11 -41
-9 -28 3 -37 7 -28 13 21 13 69 11 69 -4z m-805 -96 l20 -8 -20 -6 c-11 -3
-38 -8 -60 -12 l-39 -7 24 21 c27 22 43 24 75 12z m835 -16 c0 -8 4 -23 9 -33
5 -9 14 -35 19 -57 6 -22 15 -58 21 -80 9 -35 26 -131 36 -200 1 -11 5 -27 8
-35 3 -8 10 -53 16 -100 22 -171 32 -225 47 -236 24 -19 -5 -53 -191 -234 -12
-11 -24 -20 -27 -20 -4 0 -18 -10 -31 -22 -13 -13 -47 -43 -76 -68 -29 -25
-66 -57 -83 -73 -16 -15 -33 -25 -37 -22 -10 5 -176 -153 -184 -175 -5 -13 -7
-13 -16 0 -10 13 -11 13 -11 0 0 -20 -104 -122 -115 -113 -4 5 -5 2 -1 -5 5
-9 1 -15 -13 -19 -12 -3 -21 -10 -21 -15 0 -5 5 -6 11 -3 6 4 -1 -16 -16 -45
-23 -46 -28 -50 -43 -38 -15 12 -16 11 -4 -4 12 -15 9 -26 -24 -80 -22 -35
-38 -66 -36 -70 1 -5 -2 -8 -8 -8 -5 0 -10 -6 -10 -13 0 -25 -61 -137 -75
-137 -8 0 -15 -5 -15 -11 0 -5 5 -7 10 -4 13 8 13 3 0 -30 -14 -37 -53 -223
-56 -270 -1 -22 -5 -57 -8 -77 -10 -65 18 -97 30 -33 3 19 9 33 13 31 3 -2 5
17 3 42 -3 47 10 83 25 69 4 -4 2 -21 -4 -37 -6 -17 -7 -28 -2 -24 5 3 9 -27
9 -70 0 -41 3 -82 7 -92 5 -13 3 -15 -7 -9 -10 6 -12 4 -7 -9 17 -44 30 -156
17 -156 -4 0 -7 -12 -6 -27 3 -68 -17 -379 -26 -390 -6 -8 -6 -19 2 -33 6 -11
8 -25 4 -31 -3 -6 -8 -63 -10 -127 -2 -64 -8 -178 -14 -252 -5 -74 -10 -142
-10 -150 0 -13 -1 -13 -10 0 -8 12 -10 11 -10 -6 0 -11 3 -24 6 -27 13 -13 3
-351 -11 -379 -8 -17 -10 -30 -4 -34 6 -3 8 -18 5 -32 -3 -15 -8 -81 -11 -147
-4 -66 -8 -122 -10 -125 -3 -5 -14 -125 -20 -223 -2 -27 -6 -51 -10 -55 -4 -4
-5 13 -1 38 5 29 4 42 -3 35 -5 -5 -12 -23 -14 -40 -3 -16 -4 6 -2 50 2 44 1
68 -1 52 -3 -15 -10 -25 -15 -22 -5 4 -9 -1 -9 -10 0 -9 4 -14 9 -11 5 3 6
-15 3 -40 -3 -33 -1 -49 9 -56 12 -8 11 -9 -1 -5 -10 2 -17 23 -22 62 -4 32
-12 63 -18 69 -5 5 -9 26 -9 46 1 23 3 27 6 13 6 -33 33 -29 32 5 l-1 27 -9
-25 c-7 -19 -8 -14 -4 20 4 40 4 43 -9 27 -13 -17 -15 -15 -22 29 -10 66 3
893 15 979 5 39 13 122 17 185 3 63 8 131 10 150 7 63 32 263 45 352 10 70 10
90 0 102 -17 20 -51 4 -51 -24 0 -10 -4 -22 -10 -25 -5 -3 -7 -18 -4 -33 3
-16 -4 -93 -15 -173 -27 -189 -53 -527 -61 -799 l-3 -85 -9 65 c-28 194 -10
719 32 920 28 136 50 271 50 308 0 23 4 42 10 42 5 0 7 6 4 13 -3 8 0 27 7 43
6 16 20 61 30 99 29 113 56 197 72 235 41 94 47 109 47 122 0 7 6 24 13 38 7
14 19 44 26 68 8 23 18 42 23 42 4 0 8 9 8 19 0 11 7 26 15 35 8 8 15 21 15
29 0 9 3 17 8 19 4 2 26 41 50 88 24 47 56 108 73 135 16 28 36 64 44 80 23
45 56 99 64 105 4 3 23 31 42 63 18 31 37 57 41 57 5 0 8 6 8 13 0 8 9 22 20
32 11 10 20 23 20 28 0 6 7 17 15 26 46 50 53 60 49 64 -2 2 5 12 16 22 11 10
20 25 20 35 0 9 18 34 40 55 43 42 50 38 23 -15 -19 -39 -30 -130 -16 -130 41
0 120 194 131 320 2 30 8 60 13 66 5 6 7 71 5 145 -4 157 -39 352 -67 378 -27
25 -11 38 61 52 36 7 69 16 75 21 15 13 35 9 35 -7z m535 -5 c3 -5 1 -10 -4
-10 -6 0 -11 5 -11 10 0 6 2 10 4 10 3 0 8 -4 11 -10z m-2365 -100 c6 -11 7
-20 2 -20 -6 0 -12 9 -15 20 -3 11 -3 20 -1 20 2 0 8 -9 14 -20z m2375 -87
c-9 -51 -20 -39 -18 20 2 66 2 67 14 37 6 -14 8 -40 4 -57z m-2422 -110 c3
-37 1 -53 -8 -57 -15 -5 -17 13 -8 77 6 49 11 44 16 -20z m-9 -175 c6 -4 7
-10 3 -15 -10 -9 -27 16 -26 37 1 13 1 13 6 0 3 -8 11 -18 17 -22z m11 -114
c8 -43 20 -92 27 -109 25 -67 49 -122 68 -157 11 -20 20 -44 20 -52 0 -9 4
-16 9 -16 4 0 21 -19 36 -42 16 -24 43 -57 60 -75 17 -17 47 -52 66 -77 19
-25 41 -48 50 -51 9 -3 19 -15 22 -26 3 -11 9 -19 14 -17 4 1 22 -6 40 -15 18
-9 42 -17 55 -17 15 0 19 -3 11 -8 -7 -4 -17 -42 -23 -82 -5 -41 -14 -111 -20
-155 -6 -44 -15 -93 -20 -109 -5 -16 -17 -86 -27 -155 -9 -69 -19 -128 -22
-131 -3 -3 -7 -48 -9 -100 -2 -52 -10 -151 -18 -220 -15 -127 -23 -205 -29
-295 -7 -96 -8 -100 -15 -45 -12 84 -12 218 0 200 5 -8 10 -10 10 -4 0 5 -5
15 -11 21 -12 12 -27 157 -34 332 -2 68 -8 128 -12 132 -4 4 -19 3 -32 -2
l-23 -9 6 -238 c3 -130 10 -264 15 -297 6 -33 17 -184 26 -335 19 -325 33
-506 45 -575 5 -27 12 -102 15 -165 6 -123 28 -344 36 -360 6 -13 3 -88 -3
-83 -5 2 -8 -3 -8 -11 0 -10 6 -13 15 -10 11 5 15 -1 15 -26 0 -18 -4 -29 -10
-25 -5 3 -10 10 -10 15 0 5 -11 21 -25 36 -14 15 -25 38 -25 50 0 13 -4 24 -9
24 -5 0 -13 14 -16 32 -4 17 -18 51 -32 75 -13 24 -21 49 -17 55 4 7 3 8 -4 4
-7 -4 -12 -1 -12 6 -1 7 -9 31 -20 53 -11 22 -19 50 -20 61 0 12 -7 27 -16 34
-19 17 -41 56 -25 46 6 -4 11 -2 11 3 0 6 -4 11 -9 11 -11 0 -37 64 -46 113
-5 23 -11 34 -19 30 -6 -3 -8 -3 -4 2 4 4 -1 24 -11 44 -10 20 -21 51 -24 69
-6 32 -27 84 -48 125 -6 10 -7 28 -4 40 4 15 3 18 -3 9 -14 -21 -33 42 -27 92
4 34 3 37 -5 16 -9 -24 -9 -23 -5 5 3 17 10 68 15 115 6 46 15 87 21 91 12 7
26 57 40 139 5 30 16 70 25 87 13 24 14 36 6 46 -8 9 -7 32 3 82 7 39 16 113
20 165 3 52 9 97 14 100 11 7 35 490 35 725 1 171 -1 190 -16 193 -12 2 -19
-5 -24 -25 -4 -15 -11 -33 -16 -40 -12 -15 -38 -211 -38 -290 0 -64 -19 -90
-22 -30 -1 17 -2 39 -3 47 -15 145 -23 749 -11 769 4 6 2 27 -3 48 -7 25 -7
60 0 111 6 41 8 80 5 87 -4 13 4 29 11 21 2 -1 10 -39 18 -82z m-268 -71 c-3
-10 -5 -2 -5 17 0 19 2 27 5 18 2 -10 2 -26 0 -35z m1 -128 c-1 -30 -1 -30 -9
5 -6 26 -7 21 -3 -24 3 -46 1 -63 -12 -77 -15 -17 -16 -25 -5 -72 7 -29 14
-143 15 -257 2 -113 7 -214 11 -224 6 -14 5 -17 -3 -12 -14 8 -16 -6 -3 -20
12 -12 31 -104 21 -104 -11 0 -31 50 -24 61 3 5 2 9 -3 8 -18 -3 -27 2 -16 9
8 5 7 12 -4 27 -13 16 -15 17 -10 3 4 -10 2 -18 -3 -18 -6 0 -10 9 -10 19 0
11 -4 23 -10 26 -5 3 -10 19 -10 35 0 16 -4 32 -10 35 -5 3 -10 26 -10 51 0
28 4 43 10 39 7 -4 9 13 6 49 -3 39 -1 60 9 70 9 9 11 16 3 24 -7 7 -7 25 0
59 6 26 14 85 18 131 3 45 10 82 14 82 4 0 11 7 14 16 5 12 2 15 -10 10 -13
-5 -15 -2 -9 11 5 10 13 47 19 83 l10 65 8 -40 c4 -22 7 -53 6 -70z m1459
-292 c-6 -10 -38 -83 -67 -150 -24 -57 -34 -64 -50 -34 -7 15 -7 22 3 28 8 4
17 15 20 23 4 8 5 -1 2 -20 -5 -32 -4 -33 6 -10 5 14 8 33 5 43 -3 13 0 17 9
13 8 -3 12 0 9 8 -2 7 4 23 16 36 11 13 20 28 20 35 0 6 5 16 12 23 13 13 21
16 15 5z m1500 -255 c-3 -7 -5 -2 -5 12 0 14 2 19 5 13 2 -7 2 -19 0 -25z
m-97 -76 c0 -25 -34 -68 -107 -138 -60 -57 -75 -85 -53 -99 15 -9 12 -25 -6
-25 -8 0 -13 -4 -9 -9 3 -5 1 -12 -4 -15 -5 -3 -11 1 -15 9 -3 8 3 19 12 24 9
6 13 10 7 11 -23 0 -38 -19 -32 -40 6 -25 -16 -55 -33 -45 -6 4 -9 1 -8 -7 2
-8 -6 -13 -19 -12 -12 0 -20 -3 -17 -7 6 -11 -5 -16 -50 -24 -26 -5 -37 -4
-33 3 4 5 0 12 -8 16 -8 3 -15 1 -15 -4 0 -11 -28 -9 -47 3 -7 5 -27 29 -44
54 -26 37 -29 47 -18 55 12 8 11 9 -1 5 -10 -3 -26 13 -45 44 -16 26 -50 68
-74 94 -49 52 -50 71 -1 25 17 -16 36 -28 40 -25 5 3 39 -5 77 -18 127 -42
349 -13 423 56 14 13 33 26 43 30 19 7 22 22 7 32 -17 10 -11 25 10 25 13 0
20 -7 20 -18z m-1232 -165 c13 5 14 3 5 -7 -14 -16 -47 -5 -37 12 6 9 9 9 11
1 3 -7 12 -9 21 -6z m-25 -23 c12 -4 10 -16 -11 -67 -13 -34 -27 -64 -31 -67
-3 -3 -7 -10 -8 -17 -2 -7 -12 -27 -23 -45 -18 -30 -20 -31 -20 -9 0 28 32
121 41 121 4 0 5 -10 2 -22 -3 -17 -2 -19 5 -9 6 8 10 29 10 46 0 32 10 75 17
75 2 0 10 -2 18 -6z m-88 -261 c-5 -15 -7 -15 -16 -3 -8 11 -9 6 -5 -19 4 -21
-2 -57 -15 -100 -12 -36 -24 -73 -27 -81 -3 -11 -6 -11 -9 -2 -10 27 -21 10
-12 -20 6 -23 5 -34 -3 -39 -7 -5 -9 -11 -6 -15 4 -3 1 -23 -6 -43 -8 -20 -22
-63 -31 -96 -10 -33 -20 -64 -24 -70 -3 -5 -6 -14 -7 -20 0 -5 -2 -16 -2 -23
-1 -7 -7 -10 -13 -7 -6 4 -9 -2 -8 -17 4 -42 -1 -91 -8 -85 -14 14 -5 124 12
158 10 19 20 52 22 74 2 21 7 41 11 45 4 3 7 23 8 45 0 23 8 55 17 73 9 18 14
39 11 47 -3 7 -1 16 5 20 6 3 11 15 11 26 0 10 5 19 11 19 5 0 8 4 4 9 -3 5 0
13 6 17 8 5 9 -6 5 -37 -5 -38 -4 -40 4 -14 6 17 8 41 5 54 -3 13 4 52 15 87
19 57 23 62 37 49 8 -9 12 -23 8 -32z m-386 -77 c-22 -20 -22 -20 -6 0 9 11
17 27 18 35 0 11 2 11 6 0 3 -7 -5 -23 -18 -35z m-43 -84 c-8 -16 -12 -39 -9
-52 6 -22 7 -22 19 -5 24 33 25 9 3 -63 -15 -48 -28 -72 -41 -75 -10 -3 -18
-11 -18 -19 0 -10 2 -10 10 2 18 30 20 1 4 -74 -10 -42 -20 -76 -23 -76 -3 0
-7 -19 -9 -43 -1 -23 -9 -67 -17 -98 -15 -56 -30 -183 -41 -329 -3 -41 -12
-113 -21 -160 -8 -47 -15 -111 -15 -143 0 -57 -11 -71 -15 -19 -3 54 -11 117
-16 132 -11 30 -36 207 -42 295 -4 50 -9 98 -12 109 -3 11 -1 16 5 12 7 -4 8
3 3 21 -4 16 -7 55 -6 88 1 33 -3 63 -9 67 -19 13 5 22 24 10 22 -13 23 -12
14 12 -3 8 -12 12 -20 9 -8 -3 -14 0 -14 6 0 6 5 11 10 11 6 0 10 9 10 20 0
11 9 25 20 32 11 7 20 18 20 24 0 15 49 107 63 119 7 6 22 32 35 59 15 32 26
45 31 37 5 -7 8 -1 8 16 0 15 13 47 29 69 33 47 43 50 20 6z m201 -144 c-3 -7
-5 -2 -5 12 0 14 2 19 5 13 2 -7 2 -19 0 -25z m-1090 -565 c-3 -10 -5 -2 -5
17 0 19 2 27 5 18 2 -10 2 -26 0 -35z m390 -1405 c-3 -8 -6 -5 -6 6 -1 11 2
17 5 13 3 -3 4 -12 1 -19z m10 -170 c-3 -8 -6 -5 -6 6 -1 11 2 17 5 13 3 -3 4
-12 1 -19z m510 -270 c-3 -8 -6 -5 -6 6 -1 11 2 17 5 13 3 -3 4 -12 1 -19z
m53 -99 c0 -5 -4 -9 -10 -9 -5 0 -10 7 -10 16 0 8 5 12 10 9 6 -3 10 -10 10
-16z m-3 -51 c-3 -8 -6 -5 -6 6 -1 11 2 17 5 13 3 -3 4 -12 1 -19z"/>
<path d="M3425 6230 c3 -5 8 -10 11 -10 2 0 4 5 4 10 0 6 -5 10 -11 10 -5 0
-7 -4 -4 -10z"/>
<path d="M3260 6200 c0 -5 9 -10 20 -10 11 0 20 5 20 10 0 6 -9 10 -20 10 -11
0 -20 -4 -20 -10z"/>
<path d="M3630 6190 c18 -12 47 -13 54 -2 2 4 -12 9 -32 10 -28 2 -33 0 -22
-8z"/>
<path d="M3430 6156 c1 -27 16 -36 32 -17 15 18 15 19 -8 24 -14 2 -24 -1 -24
-7z"/>
<path d="M3708 6163 c6 -2 18 -2 25 0 6 3 1 5 -13 5 -14 0 -19 -2 -12 -5z"/>
<path d="M3760 6157 c0 -9 7 -14 15 -13 20 3 20 20 1 24 -9 2 -16 -3 -16 -11z"/>
<path d="M3145 6150 c3 -5 8 -10 11 -10 2 0 4 5 4 10 0 6 -5 10 -11 10 -5 0
-7 -4 -4 -10z"/>
<path d="M3360 6150 c0 -5 4 -10 9 -10 6 0 13 5 16 10 3 6 -1 10 -9 10 -9 0
-16 -4 -16 -10z"/>
<path d="M3558 6153 c7 -3 16 -2 19 1 4 3 -2 6 -13 5 -11 0 -14 -3 -6 -6z"/>
<path d="M3520 6130 c0 -5 5 -10 10 -10 6 0 10 5 10 10 0 6 -4 10 -10 10 -5 0
-10 -4 -10 -10z"/>
<path d="M2830 6120 c0 -5 5 -10 10 -10 6 0 10 5 10 10 0 6 -4 10 -10 10 -5 0
-10 -4 -10 -10z"/>
<path d="M3383 6123 c9 -2 23 -2 30 0 6 3 -1 5 -18 5 -16 0 -22 -2 -12 -5z"/>
<path d="M3320 6105 c0 -9 5 -15 11 -13 6 2 11 8 11 13 0 5 -5 11 -11 13 -6 2
-11 -4 -11 -13z"/>
<path d="M2791 6084 c0 -11 3 -14 6 -6 3 7 2 16 -1 19 -3 4 -6 -2 -5 -13z"/>
<path d="M3720 6050 c0 -5 5 -10 10 -10 6 0 10 5 10 10 0 6 -4 10 -10 10 -5 0
-10 -4 -10 -10z"/>
<path d="M4078 6015 c-8 -8 3 -55 13 -55 5 0 9 9 9 20 0 11 -5 20 -11 20 -5 0
-7 5 -4 10 7 11 2 14 -7 5z"/>
<path d="M4267 5853 c-8 -12 9 -36 21 -32 7 3 6 10 -3 22 -7 10 -15 14 -18 10z"/>
<path d="M4190 5820 c30 -23 50 -26 50 -6 0 9 -7 12 -20 9 -11 -3 -20 0 -20 6
0 6 -8 11 -17 11 -15 0 -13 -4 7 -20z"/>
<path d="M4431 5634 c0 -11 3 -14 6 -6 3 7 2 16 -1 19 -3 4 -6 -2 -5 -13z"/>
<path d="M2973 5873 c9 -2 25 -2 35 0 9 3 1 5 -18 5 -19 0 -27 -2 -17 -5z"/>
<path d="M2888 5803 c7 -3 16 -2 19 1 4 3 -2 6 -13 5 -11 0 -14 -3 -6 -6z"/>
<path d="M2850 5779 c0 -5 5 -7 10 -4 6 3 10 8 10 11 0 2 -4 4 -10 4 -5 0 -10
-5 -10 -11z"/>
<path d="M3920 5780 c0 -5 5 -10 10 -10 6 0 10 5 10 10 0 6 -4 10 -10 10 -5 0
-10 -4 -10 -10z"/>
<path d="M3965 5770 c3 -5 11 -10 16 -10 6 0 7 5 4 10 -3 6 -11 10 -16 10 -6
0 -7 -4 -4 -10z"/>
<path d="M3648 5743 c6 -2 18 -2 25 0 6 3 1 5 -13 5 -14 0 -19 -2 -12 -5z"/>
<path d="M4090 5716 c0 -2 7 -6 15 -10 8 -3 15 -1 15 4 0 6 -7 10 -15 10 -8 0
-15 -2 -15 -4z"/>
<path d="M4122 5596 c7 -8 16 -12 21 -9 11 7 -2 23 -19 23 -12 0 -12 -2 -2
-14z"/>
<path d="M4278 5603 c7 -3 16 -2 19 1 4 3 -2 6 -13 5 -11 0 -14 -3 -6 -6z"/>
<path d="M4277 5513 c-12 -11 -8 -23 8 -23 8 0 15 7 15 15 0 16 -12 20 -23 8z"/>
<path d="M4337 5453 c-11 -10 -8 -20 8 -27 10 -4 15 1 15 14 0 20 -11 26 -23
13z"/>
<path d="M4280 5345 c0 -8 5 -15 10 -15 6 0 10 7 10 15 0 8 -4 15 -10 15 -5 0
-10 -7 -10 -15z"/>
<path d="M4491 5064 c0 -11 3 -14 6 -6 3 7 2 16 -1 19 -3 4 -6 -2 -5 -13z"/>
<path d="M4482 5020 c0 -14 2 -19 5 -12 2 6 2 18 0 25 -3 6 -5 1 -5 -13z"/>
<path d="M2071 5374 c0 -11 3 -14 6 -6 3 7 2 16 -1 19 -3 4 -6 -2 -5 -13z"/>
<path d="M2161 5334 c0 -11 3 -14 6 -6 3 7 2 16 -1 19 -3 4 -6 -2 -5 -13z"/>
<path d="M2086 5265 c-3 -8 -1 -15 4 -15 6 0 10 7 10 15 0 8 -2 15 -4 15 -2 0
-6 -7 -10 -15z"/>
<path d="M1985 5230 c3 -5 8 -10 11 -10 2 0 4 5 4 10 0 6 -5 10 -11 10 -5 0
-7 -4 -4 -10z"/>
<path d="M2081 5214 c0 -11 3 -14 6 -6 3 7 2 16 -1 19 -3 4 -6 -2 -5 -13z"/>
<path d="M2055 5210 c3 -5 8 -10 11 -10 2 0 4 5 4 10 0 6 -5 10 -11 10 -5 0
-7 -4 -4 -10z"/>
<path d="M2003 4440 c0 -25 2 -35 4 -22 2 12 2 32 0 45 -2 12 -4 2 -4 -23z"/>
<path d="M1981 3724 c0 -11 3 -14 6 -6 3 7 2 16 -1 19 -3 4 -6 -2 -5 -13z"/>
<path d="M2060 3410 c0 -5 5 -10 10 -10 6 0 10 5 10 10 0 6 -4 10 -10 10 -5 0
-10 -4 -10 -10z"/>
<path d="M2058 3363 c7 -3 16 -2 19 1 4 3 -2 6 -13 5 -11 0 -14 -3 -6 -6z"/>
<path d="M2090 3045 c0 -10 29 -24 34 -17 3 6 -3 12 -14 15 -11 3 -20 4 -20 2z"/>
<path d="M3255 5420 c3 -5 10 -10 16 -10 5 0 9 5 9 10 0 6 -7 10 -16 10 -8 0
-12 -4 -9 -10z"/>
<path d="M3538 5613 c12 -2 32 -2 45 0 12 2 2 4 -23 4 -25 0 -35 -2 -22 -4z"/>
<path d="M3761 5504 c0 -11 3 -14 6 -6 3 7 2 16 -1 19 -3 4 -6 -2 -5 -13z"/>
<path d="M2570 5039 c-48 -15 -73 -30 -98 -57 -17 -20 -31 -41 -29 -47 6 -16
37 -18 81 -5 142 44 175 58 160 69 -5 3 -15 18 -21 34 -15 32 -10 31 -93 6z"/>
<path d="M2712 4966 c7 -8 15 -12 17 -11 5 6 -10 25 -20 25 -5 0 -4 -6 3 -14z"/>
<path d="M2585 4850 c-29 -11 -49 -37 -35 -45 13 -8 82 25 88 43 4 14 -22 15
-53 2z"/>
<path d="M2700 4836 c-25 -6 -72 -25 -106 -43 -59 -31 -61 -33 -68 -79 -3 -26
-4 -50 -1 -53 3 -3 27 3 53 12 44 17 47 17 59 0 17 -22 16 -33 -2 -33 -18 0
-36 -32 -26 -48 5 -9 25 -8 82 2 40 8 86 17 101 20 14 2 36 9 47 16 12 6 26 8
31 5 10 -6 14 13 12 50 -2 20 -2 20 13 1 8 -11 15 -23 15 -28 0 -4 9 -8 20 -8
13 0 20 7 20 19 0 20 25 31 71 31 44 0 42 13 -8 37 l-48 23 -48 -25 c-27 -14
-53 -22 -58 -19 -14 8 -10 -6 6 -22 8 -9 15 -20 15 -26 0 -6 -11 1 -25 16 -14
15 -25 32 -25 38 0 6 -11 26 -25 44 -14 18 -25 37 -25 42 0 5 -8 16 -17 24
-15 12 -26 13 -63 4z"/>
<path d="M2433 4093 c-41 -15 24 -59 80 -54 32 3 35 -9 7 -27 -25 -15 -26 -42
-2 -42 19 0 82 47 82 61 0 22 -138 73 -167 62z"/>
<path d="M3911 5494 c0 -11 3 -14 6 -6 3 7 2 16 -1 19 -3 4 -6 -2 -5 -13z"/>
<path d="M4121 5004 c0 -11 3 -14 6 -6 3 7 2 16 -1 19 -3 4 -6 -2 -5 -13z"/>
<path d="M4242 4960 c0 -14 2 -19 5 -12 2 6 2 18 0 25 -3 6 -5 1 -5 -13z"/>
<path d="M4201 4754 c0 -11 3 -14 6 -6 3 7 2 16 -1 19 -3 4 -6 -2 -5 -13z"/>
<path d="M4336 4661 c-4 -7 -5 -15 -2 -18 9 -9 19 4 14 18 -4 11 -6 11 -12 0z"/>
<path d="M4602 4535 c0 -16 2 -22 5 -12 2 9 2 23 0 30 -3 6 -5 -1 -5 -18z"/>
<path d="M4601 4404 c0 -11 3 -14 6 -6 3 7 2 16 -1 19 -3 4 -6 -2 -5 -13z"/>
<path d="M4597 4326 c-4 -10 -1 -13 8 -9 8 3 12 9 9 14 -7 12 -11 11 -17 -5z"/>
<path d="M4660 4309 c0 -5 5 -7 10 -4 6 3 10 8 10 11 0 2 -4 4 -10 4 -5 0 -10
-5 -10 -11z"/>
<path d="M4641 4294 c0 -11 3 -14 6 -6 3 7 2 16 -1 19 -3 4 -6 -2 -5 -13z"/>
<path d="M4377 4211 c-4 -17 -3 -21 5 -13 5 5 8 16 6 23 -3 8 -7 3 -11 -10z"/>
<path d="M4640 3800 c0 -5 4 -10 9 -10 6 0 13 5 16 10 3 6 -1 10 -9 10 -9 0
-16 -4 -16 -10z"/>
<path d="M4660 3721 c0 -6 5 -13 10 -16 6 -3 10 1 10 9 0 9 -4 16 -10 16 -5 0
-10 -4 -10 -9z"/>
<path d="M4641 3654 c0 -11 3 -14 6 -6 3 7 2 16 -1 19 -3 4 -6 -2 -5 -13z"/>
<path d="M4410 3610 c0 -5 5 -10 10 -10 6 0 10 5 10 10 0 6 -4 10 -10 10 -5 0
-10 -4 -10 -10z"/>
<path d="M4055 3530 c-3 -5 -2 -10 4 -10 5 0 13 5 16 10 3 6 2 10 -4 10 -5 0
-13 -4 -16 -10z"/>
<path d="M4508 3513 c7 -3 16 -2 19 1 4 3 -2 6 -13 5 -11 0 -14 -3 -6 -6z"/>
<path d="M3600 3409 c0 -5 5 -7 10 -4 6 3 10 8 10 11 0 2 -4 4 -10 4 -5 0 -10
-5 -10 -11z"/>
<path d="M1912 5020 c0 -14 2 -19 5 -12 2 6 2 18 0 25 -3 6 -5 1 -5 -13z"/>
<path d="M1852 4720 c0 -19 2 -27 5 -17 2 9 2 25 0 35 -3 9 -5 1 -5 -18z"/>
<path d="M1832 4700 c0 -14 2 -19 5 -12 2 6 2 18 0 25 -3 6 -5 1 -5 -13z"/>
<path d="M1860 4629 c0 -5 5 -7 10 -4 6 3 10 8 10 11 0 2 -4 4 -10 4 -5 0 -10
-5 -10 -11z"/>
<path d="M4081 4674 c0 -11 3 -14 6 -6 3 7 2 16 -1 19 -3 4 -6 -2 -5 -13z"/>
<path d="M4086 4612 c-7 -11 4 -52 13 -52 4 0 6 14 3 30 -4 31 -7 35 -16 22z"/>
<path d="M3761 3904 c0 -11 3 -14 6 -6 3 7 2 16 -1 19 -3 4 -6 -2 -5 -13z"/>
<path d="M3450 3419 c0 -5 5 -7 10 -4 6 3 10 8 10 11 0 2 -4 4 -10 4 -5 0 -10
-5 -10 -11z"/>
<path d="M3380 3320 c-6 -11 -7 -20 -2 -20 6 0 12 9 15 20 3 11 3 20 1 20 -2
0 -8 -9 -14 -20z"/>
<path d="M3085 2550 c3 -5 8 -10 11 -10 2 0 4 5 4 10 0 6 -5 10 -11 10 -5 0
-7 -4 -4 -10z"/>
<path d="M3202 2345 c0 -16 2 -22 5 -12 2 9 2 23 0 30 -3 6 -5 -1 -5 -18z"/>
<path d="M3002 2145 c0 -16 2 -22 5 -12 2 9 2 23 0 30 -3 6 -5 -1 -5 -18z"/>
<path d="M3132 1190 c0 -19 2 -27 5 -17 2 9 2 25 0 35 -3 9 -5 1 -5 -18z"/>
<path d="M3091 464 c0 -11 3 -14 6 -6 3 7 2 16 -1 19 -3 4 -6 -2 -5 -13z"/>
<path d="M3082 380 c0 -14 2 -19 5 -12 2 6 2 18 0 25 -3 6 -5 1 -5 -13z"/>
<path d="M2180 4015 c0 -9 5 -15 11 -13 6 2 11 8 11 13 0 5 -5 11 -11 13 -6 2
-11 -4 -11 -13z"/>
<path d="M2400 3801 c0 -5 5 -13 10 -16 6 -3 10 -2 10 4 0 5 -4 13 -10 16 -5
3 -10 2 -10 -4z"/>
<path d="M2311 3064 c0 -11 3 -14 6 -6 3 7 2 16 -1 19 -3 4 -6 -2 -5 -13z"/>
<path d="M2351 2984 c0 -11 3 -14 6 -6 3 7 2 16 -1 19 -3 4 -6 -2 -5 -13z"/>
<path d="M2282 2905 c0 -16 2 -22 5 -12 2 9 2 23 0 30 -3 6 -5 -1 -5 -18z"/>
<path d="M2271 2854 c0 -11 3 -14 6 -6 3 7 2 16 -1 19 -3 4 -6 -2 -5 -13z"/>
<path d="M2277 2789 c6 -23 9 -24 16 -5 3 8 0 17 -7 19 -10 4 -12 -1 -9 -14z"/>
<path d="M2356 2735 c-3 -8 -1 -15 4 -15 6 0 10 7 10 15 0 8 -2 15 -4 15 -2 0
-6 -7 -10 -15z"/>
<path d="M2362 2660 c0 -14 2 -19 5 -12 2 6 2 18 0 25 -3 6 -5 1 -5 -13z"/>
<path d="M2480 2649 c0 -5 5 -7 10 -4 6 3 10 8 10 11 0 2 -4 4 -10 4 -5 0 -10
-5 -10 -11z"/>
<path d="M2361 2584 c0 -11 3 -14 6 -6 3 7 2 16 -1 19 -3 4 -6 -2 -5 -13z"/>
<path d="M2481 2564 c0 -11 3 -14 6 -6 3 7 2 16 -1 19 -3 4 -6 -2 -5 -13z"/>
<path d="M2345 2550 c4 -6 11 -8 16 -5 14 9 11 15 -7 15 -8 0 -12 -5 -9 -10z"/>
<path d="M2232 2500 c0 -14 2 -19 5 -12 2 6 2 18 0 25 -3 6 -5 1 -5 -13z"/>
<path d="M2206 2311 c-4 -7 -5 -15 -2 -18 9 -9 19 4 14 18 -4 11 -6 11 -12 0z"/>
<path d="M2345 2270 c-4 -6 7 -10 24 -10 17 0 31 5 31 10 0 6 -11 10 -24 10
-14 0 -28 -4 -31 -10z"/>
<path d="M2191 2254 c0 -11 3 -14 6 -6 3 7 2 16 -1 19 -3 4 -6 -2 -5 -13z"/>
<path d="M2222 2245 c0 -16 2 -22 5 -12 2 9 2 23 0 30 -3 6 -5 -1 -5 -18z"/>
<path d="M2392 2100 c0 -14 2 -19 5 -12 2 6 2 18 0 25 -3 6 -5 1 -5 -13z"/>
<path d="M2435 1651 c-3 -5 -1 -12 5 -16 5 -3 10 1 10 9 0 18 -6 21 -15 7z"/>
<path d="M2222 1600 c0 -14 2 -19 5 -12 2 6 2 18 0 25 -3 6 -5 1 -5 -13z"/>
<path d="M2435 1600 c3 -5 8 -10 11 -10 2 0 4 5 4 10 0 6 -5 10 -11 10 -5 0
-7 -4 -4 -10z"/>
<path d="M2301 1494 c0 -11 3 -14 6 -6 3 7 2 16 -1 19 -3 4 -6 -2 -5 -13z"/>
<path d="M2271 1484 c0 -11 3 -14 6 -6 3 7 2 16 -1 19 -3 4 -6 -2 -5 -13z"/>
<path d="M2430 1080 c0 -5 5 -10 10 -10 6 0 10 5 10 10 0 6 -4 10 -10 10 -5 0
-10 -4 -10 -10z"/>
<path d="M1872 3850 c0 -14 2 -19 5 -12 2 6 2 18 0 25 -3 6 -5 1 -5 -13z"/>
<path d="M1850 3520 c0 -5 5 -10 11 -10 5 0 7 5 4 10 -3 6 -8 10 -11 10 -2 0
-4 -4 -4 -10z"/>
<path d="M4210 3324 c0 -5 7 -18 15 -28 12 -16 15 -17 15 -4 0 8 -7 21 -15 28
-8 7 -15 9 -15 4z"/>
<path d="M3390 2935 c0 -14 2 -25 4 -25 2 0 6 11 8 25 3 14 1 25 -3 25 -5 0
-9 -11 -9 -25z"/>
<path d="M3308 2705 c-2 -19 0 -35 4 -35 4 0 8 16 8 35 0 19 -2 35 -4 35 -2 0
-6 -16 -8 -35z"/>
<path d="M2941 2674 c0 -11 3 -14 6 -6 3 7 2 16 -1 19 -3 4 -6 -2 -5 -13z"/>
<path d="M2782 2165 c0 -16 2 -22 5 -12 2 9 2 23 0 30 -3 6 -5 -1 -5 -18z"/>
<path d="M2021 2854 c0 -11 3 -14 6 -6 3 7 2 16 -1 19 -3 4 -6 -2 -5 -13z"/>
</g>
</svg>
